<svg width="97" height="41" viewBox="0 0 97 41" fill="none" xmlns="http://www.w3.org/2000/svg">
<g clip-path="url(#clip0_8147_1217)">
<path d="M30.1645 15.328C30.1494 13.1119 29.4266 10.9583 28.1011 9.18024C28.0834 9.14327 28.0587 9.11006 28.0283 9.08244C27.1425 7.90049 26.0657 6.87394 24.8422 6.04488C24.8102 6.01937 24.7765 5.99603 24.7414 5.97502C22.8449 4.71431 20.7079 3.85809 18.4644 3.46003H18.4364C18.4218 3.45583 18.4062 3.45583 18.3916 3.46003C17.8316 3.35384 17.2297 3.27839 16.6362 3.22809C16.5914 1.99295 16.3366 1.23006 16.037 0.755009C15.9454 0.579458 15.8186 0.424606 15.6645 0.300089C15.5104 0.175573 15.3322 0.0840598 15.1411 0.03125H15.0655H15.0151C14.8237 0.0841784 14.6452 0.175712 14.4906 0.300196C14.336 0.42468 14.2087 0.579469 14.1164 0.755009C13.814 1.23006 13.5564 1.99574 13.5172 3.23088C7.69656 3.7227 2.8502 6.89998 0.918379 11.1978C0.907368 11.2204 0.898009 11.2438 0.89038 11.2677C0.319077 12.5513 0.023428 13.9402 0.0224609 15.3448C0.0224609 18.6729 1.64351 21.772 4.59164 24.083C4.38959 25.3835 4.51564 26.7137 4.95841 27.9533C4.26407 30.1888 3.64813 33.042 4.81842 35.4675C4.81893 35.475 4.81893 35.4824 4.81842 35.4899C6.1679 38.2564 8.81086 39.0053 11.367 39.7262C12.5838 40.0213 13.7683 40.4359 14.9031 40.9642L14.9423 40.981H14.9675C14.9936 40.9837 15.0198 40.9837 15.0459 40.981H15.0879C15.1387 40.9815 15.1889 40.969 15.2335 40.9446C16.3686 40.4105 17.554 39.9902 18.7724 39.6899C20.2282 39.2791 21.7149 38.8516 22.972 38.0608L23.0084 38.0356C24.0078 37.4098 24.8095 36.5147 25.321 35.4536C26.5053 33.0252 25.8809 30.2084 25.2258 28.0259C25.2211 28.0106 25.2135 27.9964 25.2034 27.984C25.8697 26.3688 25.6849 24.6307 25.5981 24.0495C28.5435 21.7496 30.1645 18.6562 30.1645 15.328ZM29.5346 15.328C29.534 16.2321 29.4048 17.1316 29.151 17.9995C28.7034 17.0885 28.1274 16.2463 27.4404 15.4985C26.1665 14.1012 23.9127 12.3771 20.2562 11.7008C22.655 10.7866 25.1356 10.1026 27.6643 9.65809C28.8645 11.3074 29.5184 13.2897 29.5346 15.328ZM27.2472 9.09641C23.9605 9.68697 20.762 10.6907 17.7281 12.0837C17.5321 10.4992 16.8265 9.2529 15.8914 8.7974C15.9222 8.68563 15.9474 8.57944 15.9726 8.47325C18.7543 7.54055 21.6285 6.90911 24.5454 6.5898C25.5624 7.29091 26.4724 8.13519 27.2472 9.09641ZM23.5823 29.2667L23.4143 29.4148C22.8146 29.8832 22.109 30.1978 21.3593 30.3313H21.3229H21.2641H21.2473C19.6823 30.6108 17.6553 30.4012 15.1887 29.6774H15.1551H15.0319H15.0067C13.8832 30.0201 12.7304 30.2587 11.563 30.39H11.5126C9.32602 30.6024 7.67977 30.2168 6.59626 29.2275C5.33918 28.1321 5.104 26.4135 5.104 25.2511C5.63634 26.2514 6.43079 27.0888 7.40259 27.6738C9.01245 28.6239 11.0423 28.7916 13.4416 28.2076C13.5967 28.5049 13.8308 28.754 14.1182 28.9275C14.4056 29.1009 14.7352 29.1922 15.0711 29.1912C15.4066 29.1923 15.7359 29.1011 16.0229 28.9275C16.3099 28.754 16.5434 28.5049 16.6977 28.2076C19.0971 28.8028 21.1297 28.6239 22.7368 27.6738C23.7099 27.0905 24.5048 26.2527 25.0354 25.2511C25.0578 26.4135 24.8226 28.1321 23.5823 29.2667ZM22.1824 37.826C21.0964 38.3618 19.9548 38.7769 18.778 39.064C18.2412 38.5556 17.7801 37.9731 17.4089 37.3342C16.8489 36.331 17.1289 35.2272 17.5461 34.1821C17.6161 34.0032 17.7001 33.8104 17.7896 33.6092C18.1312 32.8352 18.54 31.9018 18.4 31.0383C18.859 31.0936 19.3208 31.1226 19.7831 31.125C20.2471 31.1265 20.7106 31.091 21.1689 31.0188C21.3453 31.5162 21.0933 32.3713 20.8666 33.1398C20.6738 33.6702 20.5579 34.2254 20.5222 34.7885C20.5215 35.3931 20.6732 35.9883 20.9633 36.5191C21.2534 37.0499 21.6727 37.4993 22.1824 37.826ZM15.0907 40.341C14.6371 40.0057 13.0665 38.7119 12.7641 36.5965C12.4841 34.6739 13.3101 32.5837 15.1971 30.3789C16.0303 30.6169 16.8774 30.8035 17.7336 30.9377C17.9576 31.6475 17.5629 32.5445 17.2129 33.341C17.1205 33.5533 17.0337 33.7545 16.9609 33.9418C16.499 35.1294 16.1658 36.3981 16.8601 37.6304C17.1996 38.218 17.6106 38.7614 18.0836 39.2484C17.0541 39.5217 16.0514 39.8874 15.0879 40.341H15.0907ZM22.4232 27.1429C20.917 28.0315 18.9627 28.1657 16.6278 27.5453C16.5866 27.5317 16.5431 27.5268 16.4999 27.5309C16.4568 27.5349 16.415 27.5479 16.3771 27.5689C16.3392 27.5899 16.3061 27.6185 16.2798 27.6529C16.2536 27.6873 16.2348 27.7268 16.2246 27.7689C16.1419 28.0035 15.988 28.2066 15.7843 28.3498C15.5805 28.4931 15.3371 28.5694 15.0879 28.5681C14.8366 28.57 14.5912 28.4927 14.3866 28.3472C14.182 28.2016 14.0286 27.9953 13.9484 27.7577C13.9377 27.7173 13.9188 27.6795 13.8928 27.6468C13.8668 27.6141 13.8342 27.5872 13.7972 27.5676C13.7572 27.5462 13.7132 27.5332 13.6679 27.5293C13.6227 27.5255 13.5771 27.5309 13.534 27.5453C11.2046 28.1629 9.25882 28.0287 7.74976 27.1429C6.56807 26.4146 5.68475 25.2903 5.25799 23.9712C5.51276 23.457 6.76145 21.1209 9.56679 18.4047C9.86637 18.2314 13.674 16.1524 20.6146 18.4214C23.4003 21.1237 24.6714 23.485 24.9206 23.974C24.4883 25.2897 23.6024 26.4096 22.4204 27.1345L22.4232 27.1429ZM13.0273 12.9807C13.0273 11.3795 13.6124 9.97107 14.4076 9.4541C14.4941 9.39285 14.5882 9.34307 14.6875 9.30599C14.7864 9.26881 14.8901 9.24622 14.9955 9.23893H15.1131C15.2201 9.24141 15.326 9.26123 15.4267 9.29761C15.5253 9.33024 15.6194 9.37532 15.7066 9.43175C16.415 9.87047 16.9637 11.0134 17.0897 12.3743C17.1115 12.5757 17.1218 12.7781 17.1205 12.9807C17.1205 13.0142 17.1205 13.0505 17.1205 13.0869C17.1157 13.6062 17.0442 14.1227 16.9077 14.6238C16.8482 14.8319 16.7762 15.0363 16.6922 15.2358C16.3142 16.1328 15.7234 16.7224 15.0683 16.7224C14.4132 16.7224 13.8224 16.1356 13.4444 15.2386C13.354 15.0304 13.28 14.8155 13.2233 14.5959C13.0856 14.0687 13.0197 13.5254 13.0273 12.9807ZM13.6908 16.7364C12.7436 16.7791 11.8043 16.9291 10.8911 17.1835C11.493 16.6721 12.1678 16.144 12.9125 15.613C13.0999 16.0324 13.3638 16.4134 13.6908 16.7364ZM16.3758 16.8258C16.7472 16.4875 17.0421 16.0741 17.2409 15.613C18.0808 16.2194 18.8591 16.837 19.5535 17.4434C18.5115 17.1572 17.4492 16.9507 16.3758 16.8258ZM16.1154 7.75787C16.3609 6.6424 16.5238 5.51038 16.6026 4.37101C17.1625 4.26203 17.7365 4.15863 18.3272 4.06362C20.2199 4.40511 22.0365 5.08077 23.6915 6.05886C21.1184 6.38712 18.5819 6.95596 16.1154 7.75787ZM14.6007 1.12108C14.7041 0.919033 14.8647 0.751856 15.0627 0.640436C15.26 0.752764 15.4204 0.919701 15.5247 1.12108C15.7318 1.47038 15.9446 2.09075 15.9894 3.16102C15.9894 3.35663 15.9894 3.56622 15.9894 3.79257V3.85684C15.9894 4.06083 15.9726 4.27321 15.9586 4.50794C15.8571 5.68247 15.67 6.84805 15.3987 7.9954C15.3539 8.19939 15.3091 8.40618 15.2587 8.62135C15.1939 8.61125 15.1283 8.60658 15.0627 8.60738C14.9859 8.6087 14.9093 8.6143 14.8331 8.62415C14.8023 8.49281 14.7687 8.36427 14.7407 8.23293C14.4832 7.14224 14.2962 6.03616 14.1808 4.92152C14.1584 4.69796 14.1416 4.48559 14.1332 4.28439C14.1248 4.08319 14.1164 3.94905 14.1136 3.79257C14.1136 3.56622 14.1136 3.35663 14.1136 3.16382C14.1808 2.09075 14.3964 1.47038 14.6007 1.12108ZM13.5032 3.83727C13.5032 4.03009 13.5172 4.23408 13.5312 4.44367C7.78616 6.00296 4.23048 8.30558 2.42184 9.7531C4.63924 6.54229 8.72407 4.25644 13.5032 3.83727ZM1.44473 11.5052C1.66591 11.2677 2.909 9.98224 5.36437 8.51796C7.93777 7.01262 10.7027 5.86025 13.5844 5.09198C13.7126 6.22792 13.909 7.35518 14.1724 8.46766C11.0645 9.65633 8.19519 11.3911 5.70035 13.5899C3.18057 15.8701 1.89829 17.9939 1.38034 19.0167C0.877734 17.8267 0.624418 16.5467 0.635973 15.2554C0.647529 13.9641 0.923714 12.6888 1.44753 11.508L1.44473 11.5052ZM1.7247 19.7544C2.11667 18.8714 4.92482 13.1344 13.506 9.41497C12.8313 10.203 12.4001 11.4912 12.4001 12.9779C12.3935 13.6532 12.4879 14.3256 12.6801 14.9731C7.69656 18.4773 5.42597 22.2694 4.80163 23.4459C3.53002 22.4415 2.48129 21.1845 1.7219 19.7544H1.7247ZM5.36437 28.7581C5.58743 29.115 5.85666 29.441 6.1651 29.7277C6.68889 30.2006 7.30865 30.5551 7.98214 30.7673C7.32306 30.9755 6.71734 31.3245 6.2071 31.79C5.58377 32.3891 5.15053 33.1577 4.96121 34.0004C4.54405 32.2735 4.88842 30.39 5.35038 28.7581H5.36437ZM5.42597 35.2663C5.60515 31.0411 9.56679 31.1054 9.74038 31.111C9.76994 31.112 9.79943 31.1073 9.82717 31.097C10.0371 31.097 10.2527 31.1138 10.4711 31.097C9.17203 32.1198 8.3853 33.3046 8.13333 34.632C7.92892 35.8281 8.11028 37.058 8.65128 38.1446C7.3074 37.5717 6.1539 36.7418 5.41197 35.2663H5.42597ZM9.58359 38.5107C9.35121 38.1558 8.4105 36.5797 8.76327 34.7549C9.04324 33.3382 10.0148 32.0891 11.6694 31.0411C12.5311 30.9486 13.3846 30.7917 14.2228 30.5717C12.5681 32.7038 11.8654 34.7633 12.1454 36.6859C12.3166 37.8031 12.7954 38.8508 13.5284 39.7123C12.8705 39.4831 12.1986 39.2931 11.5378 39.1059C10.8771 38.9187 10.2023 38.7286 9.58359 38.5107ZM22.8068 37.4404C22.3114 37.1895 21.8954 36.8065 21.6048 36.334C21.3142 35.8614 21.1604 35.3178 21.1605 34.7633C21.201 34.2662 21.3074 33.7766 21.4769 33.3074C21.7345 32.4467 21.9949 31.5609 21.8017 30.8846C22.3215 30.7585 22.8197 30.556 23.28 30.2838C23.28 32.6954 24.6098 33.7322 25.1642 34.0619C25.0696 34.4561 24.9336 34.8392 24.7582 35.2048C24.3169 36.1123 23.639 36.8845 22.7956 37.4404H22.8068ZM25.2958 33.3913C24.7498 32.9917 23.7867 31.9717 23.9323 29.806L24.0219 29.7277C24.32 29.4547 24.5807 29.1437 24.7974 28.8028C25.1838 30.2168 25.5001 31.8376 25.2846 33.3913H25.2958ZM25.3658 23.4542C24.7526 22.2973 22.4904 18.5193 17.4817 15.0011C17.6842 14.3469 17.7843 13.6654 17.7784 12.9807C17.7784 12.9136 17.7784 12.8438 17.7784 12.7795C18.218 12.5671 18.6716 12.3603 19.1391 12.1675C23.2184 12.6537 25.6457 14.4617 26.9644 15.9009C27.776 16.7678 28.417 17.7792 28.8542 18.8825C28.1008 20.6814 26.8955 22.256 25.3546 23.4542H25.3658Z" fill="white"/>
<path d="M10.899 22.3555C9.96666 22.3555 9.13232 22.7635 8.81875 23.3726C8.78145 23.4469 8.77493 23.5327 8.8006 23.6117C8.82628 23.6907 8.88209 23.7564 8.95595 23.7946C9.00036 23.8165 9.04919 23.828 9.09873 23.8281C9.15661 23.8283 9.21341 23.8124 9.26283 23.7823C9.31224 23.7523 9.35234 23.7091 9.3787 23.6577C9.58308 23.2609 10.2186 22.9814 10.899 22.9814C11.5793 22.9814 12.2149 23.2609 12.422 23.6577C12.4407 23.6944 12.4665 23.7272 12.4979 23.754C12.5292 23.7807 12.5656 23.8011 12.6049 23.8138C12.6442 23.8265 12.6856 23.8314 12.7268 23.8281C12.7679 23.8248 12.808 23.8134 12.8448 23.7946C12.9194 23.7564 12.9757 23.6902 13.0014 23.6106C13.0272 23.5309 13.0202 23.4443 12.982 23.3698C12.6628 22.7634 11.8229 22.3555 10.899 22.3555Z" fill="white"/>
<path d="M19.2622 22.3555C18.3299 22.3555 17.4928 22.7635 17.182 23.3726C17.1628 23.4092 17.1511 23.4493 17.1476 23.4905C17.1441 23.5317 17.1489 23.5731 17.1617 23.6124C17.1744 23.6517 17.195 23.6881 17.222 23.7194C17.2491 23.7507 17.2821 23.7762 17.3192 23.7946C17.3636 23.8165 17.4125 23.828 17.462 23.8281C17.5199 23.8283 17.5767 23.8124 17.6261 23.7823C17.6755 23.7523 17.7156 23.7091 17.742 23.6577C17.9464 23.2609 18.5819 22.9814 19.2622 22.9814C19.9426 22.9814 20.5781 23.2609 20.7853 23.6577C20.804 23.6944 20.8298 23.7272 20.8611 23.754C20.8925 23.7807 20.9289 23.8011 20.9682 23.8138C21.0075 23.8265 21.0489 23.8314 21.09 23.8281C21.1312 23.8248 21.1713 23.8134 21.2081 23.7946C21.2821 23.7558 21.338 23.6896 21.3636 23.6102C21.3893 23.5308 21.3827 23.4445 21.3453 23.3698C21.0289 22.7634 20.1918 22.3555 19.2622 22.3555Z" fill="white"/>
<path d="M39.7141 18.0635C41.7607 18.0635 43.9781 19.1813 44.3589 21.8108H41.8755C41.5227 20.8104 40.7724 20.3577 39.7141 20.3577C38.233 20.3577 37.2587 21.4755 37.2587 23.1046C37.2587 24.5578 38.219 25.8236 39.7141 25.8404C40.7892 25.8404 41.6487 25.3039 41.9175 24.2476H44.4009C44.0341 27.042 41.8195 28.1346 39.7141 28.1346C37.1943 28.1486 34.6605 26.458 34.6465 23.1046C34.6325 19.7513 37.2027 18.0635 39.7141 18.0635Z" fill="white"/>
<path d="M48.354 27.7653L49.8995 24.5852L46.5762 18.5436V18.1636H49.3983L51.2629 21.7963H51.3329L53.0268 18.1636H55.7789V18.5436L51.0782 28.0447H48.354V27.7653Z" fill="white"/>
<path d="M58.8872 28.0449H56.415V27.6789L60.861 18.0576H61.9389L66.4185 27.6705V28.0449H63.9464L61.407 22.2688L58.8872 28.0449Z" fill="white"/>
<path d="M67.5693 20.4299V18.1748H74.9075V20.4299H72.4941V28.0448H69.9967V20.4299H67.5693Z" fill="white"/>
<path d="M83.0098 26.7958H79.1153L78.5358 28.0449H76.0664V27.6789L80.5124 18.0576H81.5987L86.0587 27.6789V28.0449H83.5893L83.0098 26.7958ZM81.05 22.0453L79.9301 24.6385H82.1895L81.05 22.0453Z" fill="white"/>
<path d="M96.9996 28.0448H94.4154V24.0767H91.3665V28.0448H88.7852V18.1748H91.3665V21.7517H94.4154V18.1748H96.9996V28.0448Z" fill="white"/>
</g>
<defs>
<clipPath id="clip0_8147_1217">
<rect width="97" height="41" fill="white"/>
</clipPath>
</defs>
</svg>
